<?xml version="1.0" standalone="no"?>
<!DOCTYPE svg PUBLIC "-//W3C//DTD SVG 20010904//EN"
 "http://www.w3.org/TR/2001/REC-SVG-20010904/DTD/svg10.dtd">
<svg version="1.0" xmlns="http://www.w3.org/2000/svg"
 width="500.000000pt" height="500.000000pt" viewBox="0 0 500.000000 500.000000"
 preserveAspectRatio="xMidYMid meet">
<metadata>
Created by potrace 1.14, written by Peter Selinger 2001-2017
</metadata>
<g transform="translate(0.000000,500.000000) scale(0.100000,-0.100000)"
fill="#000000" stroke="none">
<path d="M675 4763 c-159 -34 -297 -108 -413 -224 -113 -112 -192 -242 -227
-374 -33 -126 -36 -277 -32 -1755 3 -1335 5 -1471 20 -1534 41 -166 100 -269
227 -397 105 -106 168 -150 280 -196 151 -62 24 -58 1975 -58 1708 0 1793 1
1855 18 156 45 289 126 406 249 114 120 176 238 211 399 17 79 18 172 18 1609
0 1438 -1 1530 -18 1610 -37 173 -113 306 -249 436 -125 119 -249 185 -410
218 -69 14 -269 16 -1825 15 -1513 -1 -1757 -3 -1818 -16z m3300 -578 c39 -8
113 -36 165 -61 79 -39 109 -62 186 -138 77 -77 98 -105 138 -186 77 -157 76
-141 76 -951 0 -684 -1 -719 -20 -795 -64 -251 -254 -447 -510 -526 l-75 -23
-1395 -3 c-932 -2 -1417 1 -1462 8 -237 36 -438 184 -548 402 -76 152 -75 142
-75 953 0 715 0 721 23 799 70 250 274 451 522 515 73 19 121 20 1490 20 1203
1 1425 -2 1485 -14z m-2753 -2986 c25 -13 42 -76 42 -149 -1 -152 -116 -262
-272 -262 -73 0 -90 12 -111 83 -55 185 91 364 279 342 25 -3 53 -9 62 -14z
m1336 15 c27 -6 32 -12 41 -56 35 -162 -81 -314 -248 -326 l-68 -4 -12 32 c-6
18 -11 60 -11 94 1 126 84 232 202 255 58 12 61 12 96 5z m1371 -9 c11 -12 13
-129 1 -169 -30 -107 -131 -187 -246 -194 -71 -5 -77 0 -88 81 -18 123 66 248
192 284 43 11 128 10 141 -2z"/>
<path d="M2894 3409 c483 -242 877 -442 875 -443 -2 -2 -374 -189 -826 -415
l-823 -411 0 125 0 125 577 289 578 288 -838 419 -837 419 0 -967 0 -968 120
-60 c66 -33 127 -60 135 -60 8 0 447 216 975 480 l960 480 0 130 0 130 -880
440 c-484 242 -883 440 -887 439 -5 0 387 -198 871 -440z m96 -569 c0 -3 -196
-103 -435 -223 l-435 -217 0 440 0 440 435 -217 c239 -120 435 -220 435 -223z"/>
</g>
</svg>
