<?xml version="1.0" standalone="no"?>
<!DOCTYPE svg PUBLIC "-//W3C//DTD SVG 20010904//EN"
 "http://www.w3.org/TR/2001/REC-SVG-20010904/DTD/svg10.dtd">
<svg version="1.0" xmlns="http://www.w3.org/2000/svg"
 width="500.000000pt" height="500.000000pt" viewBox="0 0 500.000000 500.000000"
 preserveAspectRatio="xMidYMid meet">
<metadata>
Created by potrace 1.11, written by Peter Selinger 2001-2013
</metadata>
<g transform="translate(0.000000,500.000000) scale(0.100000,-0.100000)"
fill="#000000" stroke="none">
<path d="M634 4756 c-316 -82 -563 -349 -619 -671 -23 -131 -23 -3038 0 -3169
54 -308 268 -553 580 -663 l80 -28 1825 0 1825 0 80 28 c288 101 493 320 572
609 16 58 18 188 21 1583 2 1075 0 1545 -8 1605 -20 149 -73 274 -168 399
-117 153 -279 261 -459 307 l-96 24 -1771 0 -1771 -1 -91 -23z m3341 -571 c39
-8 113 -36 165 -61 79 -39 109 -62 186 -138 77 -77 98 -105 138 -186 77 -157
76 -141 76 -951 0 -682 -1 -720 -20 -795 -64 -255 -265 -459 -520 -531 -61
-17 -144 -18 -1510 -18 l-1445 0 -80 27 c-247 84 -434 288 -492 538 -16 68
-18 141 -18 795 0 715 0 721 23 799 70 250 274 451 522 515 73 19 121 20 1490
20 1203 1 1425 -2 1485 -14z m-2753 -2986 c25 -13 42 -76 42 -149 -1 -151
-113 -261 -267 -262 -62 -1 -72 2 -88 23 -49 66 -51 199 -2 277 35 56 107 110
165 122 46 9 122 4 150 -11z m1336 15 c27 -6 32 -12 41 -56 36 -164 -94 -327
-261 -328 -54 0 -56 1 -67 31 -6 18 -11 59 -11 93 1 126 84 232 202 255 58 12
61 12 96 5z m1371 -10 c11 -11 12 -128 1 -168 -30 -107 -131 -187 -246 -194
-71 -5 -77 0 -88 81 -11 70 15 148 66 204 47 51 81 70 141 83 40 8 116 5 126
-6z"/>
<path d="M2894 3409 c483 -242 877 -442 875 -443 -2 -2 -374 -189 -826 -415
l-823 -411 0 125 0 125 577 289 578 288 -838 419 -837 419 0 -967 0 -968 120
-60 c66 -33 127 -60 135 -60 8 0 447 216 975 480 l960 480 0 130 0 130 -880
440 c-484 242 -883 440 -887 439 -5 0 387 -198 871 -440z m96 -569 c0 -3 -196
-103 -435 -223 l-435 -217 0 440 0 440 435 -217 c239 -120 435 -220 435 -223z"/>
</g>
</svg>
