<svg xmlns="http://www.w3.org/2000/svg" width="666.667" height="666.667" preserveAspectRatio="xMidYMid meet" version="1.0" viewBox="0 0 500 500"><metadata>Created by potrace 1.11, written by Peter Selinger 2001-2013</metadata><g fill="#000" stroke="none"><path d="M0 2500 l0 -2500 2500 0 2500 0 0 2500 0 2500 -2500 0 -2500 0 0 -2500z m4049 1666 c207 -73 384 -250 457 -457 l29 -84 3 -740 c3 -813 3 -818 -57 -950 -86 -189 -248 -335 -446 -403 l-80 -27 -1455 0 -1455 0 -77 26 c-124 43 -204 93 -299 188 -69 70 -95 104 -132 178 -84 168 -82 150 -82 958 0 652 1 716 18 788 49 206 204 397 401 492 141 67 41 64 1641 62 l1450 -2 84 -29z m-2810 -2972 c33 -13 41 -22 51 -59 16 -59 9 -149 -18 -205 -25 -54 -91 -120 -150 -149 -24 -12 -71 -24 -106 -28 -63 -6 -63 -5 -89 29 -41 53 -57 102 -57 170 1 122 74 221 191 257 42 13 127 6 178 -15z m1372 6 c37 -20 38 -140 1 -224 -27 -59 -81 -117 -137 -145 -56 -28 -161 -43 -175 -26 -35 43 -51 141 -35 217 17 76 95 157 175 183 47 15 137 13 171 -5z m1339 0 c17 -9 20 -21 20 -79 0 -92 -22 -151 -82 -216 -56 -62 -128 -95 -207 -95 -46 0 -50 2 -66 37 -26 54 -25 156 1 213 48 102 151 164 257 155 32 -3 67 -9 77 -15z" transform="translate(0.000000,500.000000) scale(0.100000,-0.100000)"/><path d="M1600 2840 l0 -966 130 -64 131 -65 964 483 965 482 0 130 0 130 -480 240 c-264 132 -483 240 -487 239 -5 0 207 -108 471 -240 263 -132 477 -242 475 -243 -2 -2 -374 -189 -826 -415 l-823 -411 0 570 0 570 445 -223 445 -222 132 66 133 67 -838 418 -837 419 0 -965z" transform="translate(0.000000,500.000000) scale(0.100000,-0.100000)"/></g></svg>
