<?xml version="1.0" standalone="no"?>
<!DOCTYPE svg PUBLIC "-//W3C//DTD SVG 20010904//EN"
 "http://www.w3.org/TR/2001/REC-SVG-20010904/DTD/svg10.dtd">
<svg version="1.0" xmlns="http://www.w3.org/2000/svg"
 width="500.000000pt" height="500.000000pt" viewBox="0 0 500.000000 500.000000"
 preserveAspectRatio="xMidYMid meet">
<metadata>
Created by potrace 1.14, written by Peter Selinger 2001-2017
</metadata>
<g transform="translate(0.000000,500.000000) scale(0.100000,-0.100000)"
fill="#000000" stroke="none">
<path d="M675 4763 c-205 -43 -382 -160 -512 -337 -94 -127 -138 -248 -153
-420 -13 -143 -13 -2875 0 -3011 12 -135 31 -202 87 -315 40 -81 62 -110 148
-196 133 -134 233 -195 395 -241 62 -17 153 -18 1860 -18 1712 0 1798 1 1860
18 156 45 289 126 406 249 114 120 177 239 210 399 17 78 18 189 19 1609 0
1439 -1 1530 -18 1610 -37 173 -113 306 -249 436 -125 119 -249 185 -410 218
-69 14 -269 16 -1825 15 -1513 -1 -1757 -3 -1818 -16z m3300 -578 c39 -8 113
-36 165 -61 79 -39 109 -62 186 -138 77 -77 98 -105 138 -186 77 -157 76 -141
76 -951 0 -684 -1 -719 -20 -795 -64 -251 -254 -447 -510 -526 l-75 -23 -1395
-3 c-932 -2 -1417 1 -1462 8 -237 36 -438 184 -548 402 -76 152 -75 142 -75
953 0 715 0 721 23 799 70 250 274 451 522 515 73 19 121 20 1490 20 1203 1
1425 -2 1485 -14z m-2753 -2986 c25 -13 42 -76 42 -149 -1 -152 -116 -262
-272 -262 -73 0 -90 12 -111 83 -55 185 91 364 279 342 25 -3 53 -9 62 -14z
m1336 15 c27 -6 32 -12 41 -56 35 -162 -81 -314 -248 -326 l-68 -4 -12 32 c-6
18 -11 60 -11 94 1 126 84 232 202 255 58 12 61 12 96 5z m1371 -9 c11 -12 13
-129 1 -169 -30 -107 -131 -187 -246 -194 -71 -5 -77 0 -88 81 -18 123 66 248
192 284 43 11 128 10 141 -2z"/>
<path d="M2895 3408 l880 -440 -489 -245 c-462 -231 -491 -244 -504 -226 -18
24 -94 174 -90 178 2 1 133 68 293 148 l290 144 -838 419 -837 419 0 -967 0
-968 120 -60 c66 -33 127 -60 135 -60 8 0 222 103 475 230 l460 230 40 -80
c22 -44 40 -84 40 -88 0 -5 -18 -12 -40 -15 -127 -17 -182 -179 -94 -277 44
-49 82 -64 145 -58 56 6 93 28 127 78 31 47 31 134 -2 182 -12 19 -53 91 -90
161 l-67 127 34 16 34 16 152 -105 c139 -97 157 -106 222 -118 82 -15 165 -3
238 33 70 36 61 52 -11 18 -35 -16 -86 -33 -113 -36 l-49 -7 46 44 c32 31 48
55 53 82 19 101 -44 194 -143 213 -80 15 -176 -49 -188 -127 -4 -21 -11 -39
-15 -39 -10 0 -119 70 -119 76 0 2 180 94 400 204 l400 200 0 130 0 130 -880
440 c-484 242 -883 440 -887 439 -5 0 388 -198 872 -441z m95 -568 c0 -3 -69
-40 -153 -82 l-154 -76 -103 196 c-56 109 -104 198 -105 200 -6 8 -55 -19 -55
-31 0 -7 36 -99 81 -203 44 -104 83 -194 85 -200 3 -6 -7 -16 -21 -22 -25 -11
-37 -5 -195 103 -93 63 -176 118 -185 121 -14 6 -44 -19 -45 -38 0 -4 65 -60
145 -125 80 -64 145 -120 145 -123 0 -3 -70 -40 -155 -83 l-155 -77 0 440 0
440 435 -217 c239 -120 435 -220 435 -223z m-514 196 c3 -8 4 -27 2 -43 l-3
-28 -18 32 c-9 18 -17 37 -17 43 0 15 30 12 36 -4z m45 -128 c-1 -21 3 -38 9
-38 5 0 10 5 10 11 0 8 5 7 16 -2 12 -10 15 -24 10 -56 -3 -25 -2 -43 4 -43 6
0 10 7 10 15 0 8 4 15 9 15 13 0 21 -26 21 -66 0 -19 5 -34 10 -34 6 0 10 6
10 13 0 22 20 -17 20 -40 0 -19 -34 -43 -45 -31 -15 15 -124 293 -115 296 5 2
10 11 10 20 1 14 3 14 12 -3 6 -11 11 -37 9 -57z m-175 -189 c90 -62 164 -115
164 -119 0 -4 -12 -12 -26 -19 -24 -11 -31 -8 -78 28 -138 107 -231 188 -234
204 -2 9 -1 17 3 17 4 0 81 -50 171 -111z m338 -75 c3 -9 6 -34 6 -57 1 -36 2
-40 13 -25 12 15 17 11 42 -37 16 -30 27 -57 23 -60 -3 -4 -31 10 -61 30 -44
29 -59 47 -76 88 -16 38 -18 52 -9 58 7 4 17 0 25 -9 11 -15 12 -15 13 6 0 25
15 30 24 6z m-75 -50 c16 -36 8 -40 -29 -14 -24 17 -29 25 -18 31 22 15 34 10
47 -17z m24 -69 c53 -36 97 -69 97 -73 0 -7 -62 -42 -74 -42 -7 0 -181 142
-184 149 -3 8 35 29 53 30 6 1 54 -28 108 -64z m-93 -47 c50 -39 90 -74 90
-77 0 -4 -115 -64 -255 -134 l-255 -127 0 125 0 125 158 79 c86 44 160 80 165
80 4 1 48 -31 97 -71z m829 -126 c44 -32 71 -81 71 -127 0 -105 -121 -186
-211 -140 -18 10 -92 58 -162 108 -89 61 -125 92 -116 98 8 5 41 -12 92 -47
44 -30 82 -52 85 -50 2 3 6 22 8 42 10 113 146 181 233 116z m-477 -236 c32
-62 70 -131 84 -152 56 -82 52 -153 -11 -214 -34 -33 -41 -35 -100 -35 -57 0
-67 3 -95 30 -47 44 -63 81 -57 131 8 79 69 135 148 136 21 0 39 4 39 9 0 5
-20 50 -45 100 -41 81 -48 109 -27 109 4 0 33 -51 64 -114z"/>
<path d="M3227 2319 c-9 -5 -24 -23 -32 -39 -40 -78 7 -159 92 -160 51 0 98
35 107 80 7 39 -14 92 -45 114 -26 18 -94 21 -122 5z m128 -41 c31 -36 32 -67
4 -102 -31 -39 -63 -49 -104 -32 -73 31 -76 130 -3 160 41 18 74 9 103 -26z"/>
<path d="M2808 1954 c-36 -19 -48 -43 -48 -96 0 -100 120 -143 184 -67 39 46
36 101 -8 145 -38 38 -81 44 -128 18z m111 -30 c25 -20 31 -34 31 -64 0 -30
-6 -44 -31 -64 -35 -30 -58 -32 -98 -11 -40 20 -57 66 -41 105 26 63 87 78
139 34z"/>
</g>
</svg>
